<svg xmlns="http://www.w3.org/2000/svg" width="56" height="20" viewBox="0 0 56 20">
  <g id="Social" transform="translate(-1300 -741)">
    <path id="Union_3" data-name="Union 3" d="M3407.511,20h-2.177V12.917h2.5L3408.25,10h-2.916V7.916A1.574,1.574,0,0,1,3407,6.25h1.667V3.75a4.747,4.747,0,0,0-2.083-.417c-2.5,0-4.167,1.667-4.167,4.583V10h-2.5v2.917h2.5V20H3392V.023h2.936a3.371,3.371,0,0,1,.4-.023h13.334q.078,0,.155,0V0H3412V3.068h-.01c.007.088.01.176.01.266V20Z" transform="translate(-2092 741)" fill="#fff"/>
    <path id="Union_4" data-name="Union 4" d="M3406.595,20v-.016q-.212.015-.427.016h-8.333q-.216,0-.429-.016V20H3392V14.595h.016c-.011-.141-.016-.284-.016-.428V5.834c0-.144,0-.287.016-.429H3392V0h5.405V.015c.141-.01.283-.015.427-.015h8.333c.148,0,.295.006.44.016L3406.595,0H3412l-.01,5.5q.01.163.01.328v8.334c0,.144-.006.287-.016.429H3412V20ZM3396.8,10a5.2,5.2,0,1,0,5.2-5.2A5.206,5.206,0,0,0,3396.8,10Zm10.4-6a.8.8,0,1,0,.8-.8A.8.8,0,0,0,3407.2,4Zm-8.8,6a3.6,3.6,0,1,1,3.6,3.6A3.6,3.6,0,0,1,3398.4,10Z" transform="translate(-2056 741)" fill="#fff"/>
  </g>
</svg>
